<svg xmlns="http://www.w3.org/2000/svg" xmlns:xlink="http://www.w3.org/1999/xlink" version="1.1" id="Layer_2_1_" x="0px" y="0px" viewBox="0 0 128 128" style="enable-background:new 0 0 128 128;" xml:space="preserve" width="128px" height="128px">

<g>
	<g>
		<path d="M6.2,99.4C6.2,89.8,32,84.5,64,84.5s57.8,5.3,57.8,14.9C121.8,113,95.9,124,64,124S6.2,113,6.2,99.4z" fill="#8C959D"/>
		<path d="M11.1,50.7v45.5h0c0.7,11.8,23.9,21.4,52.5,21.4s51.9-9.5,52.5-21.4h0V50.7H11.1z" fill="#E63F33"/>
		<g>
			<path d="M23.4,75.6c10.9,4.5,25.2,7,40.3,7s29.4-2.4,40.3-7c9.8-4.2,10.7-6.9,12.3-8.5v-6c-2.8,3.8-7.7,7.2-14.2,9.9     c-10.3,4.3-23.9,6.7-38.3,6.7s-28-2.4-38.3-6.7c-6.6-2.7-11.4-6.1-14.2-9.9v7.4l5,3.6C18.4,73.3,20.8,74.5,23.4,75.6z" fill="#BDBDBD"/>
		</g>
		<line x1="43.2" y1="76.8" x2="43.2" y2="117.3" fill="#B2B6BA" stroke="#8C959D" stroke-width="4.0928" stroke-linecap="round" stroke-miterlimit="10"/>
		<line x1="84.2" y1="76.8" x2="84.2" y2="117.3" fill="#B2B6BA" stroke="#8C959D" stroke-width="4.0928" stroke-linecap="round" stroke-miterlimit="10"/>
		<path d="M42,106.1c-0.9-0.3-1.8-1.1-2.2-1.9c-0.8-1.5-0.8-3.5-0.8-5.4c-0.1-4.3,1.1-5.3,2.5-5.3h3.3    c2.5,1,2.5,3.1,2.5,4.5c0,1.4,0,0.9,0,2.4c0,2.1,0.1,4.2-1.9,5.5C45.2,105.9,43.7,106.7,42,106.1z" fill="#8C959D"/>
		<path d="M85.4,106.1c0.9-0.4,1.7-1.1,2.2-1.9c1.2-1.8,0.8-3.5,0.8-5.4c0.1-4-1.1-5.3-2.5-5.3h-3.3    c-2.5,1-2.5,3.1-2.5,4.5c0,1.4,0,0.9,0,2.4c0,2.1,0,4,1.9,5.5C82.8,106.5,84.4,106.5,85.4,106.1z" fill="#8C959D"/>
		<path d="M120.3,83.1c-0.1-4.7-1-5.5-3.2-5.3c0-8.6,0-16.4,0-16.4l-3.3,2l0.2,39.2c0,0,3.1,0.9,3.1-2.3    c0-1,0-4.8,0-9.6C120.4,89.5,120.6,86.1,120.3,83.1z" fill="#8C959D"/>
		<path d="M13.5,62.9l-3.3-2c0,0,0,8.1,0,16.9c-2.2-0.2-3.1,0.6-3.2,5.3c0,2-0.3,3.7,0.7,5.4c0.6,1,1.4,1.8,2.5,2.1    c0,4.7,0,8.3,0,9.2c0,3.3,3.1,2.3,3.1,2.3L13.5,62.9z" fill="#8C959D"/>
		<g>
			<path d="M119.2,52.5c-1.6-19.2-36.4-24.7-55.5-24.6C44.8,27.7,8.4,33.6,8.3,53.3C-2.2,72,30.9,84.4,64,84.5     C97.2,84.6,131.5,71.3,119.2,52.5z" fill="#8C959D"/>
			<ellipse cx="63.7" cy="52.7" rx="52.5" ry="21.9" fill="#D3D1D3"/>
			<ellipse cx="63.7" cy="54.7" rx="48.5" ry="20.2" fill="#FEF6E0"/>
		</g>
		<path d="M57.6,62.7c-1.4-1.9-3.7-2.3-4-2.9l-1.1-2c-0.4-0.7-0.7-1.1-1-1.6l-39.6-51c-0.9-1.2-2.7-1.5-4-0.6    c-1.4,1-1.7,3-0.6,4.3l40,50.4c0.5,0.7,1.1,1.3,1.8,1.8l1.7,1.3c0.5,0.3,0.4,2.5,2,4c1.3,1.2,3.4,1.7,4.7,0.3    C58.5,65.4,58.5,63.8,57.6,62.7z" fill="#BA793E"/>
		<path d="M70.8,62.7c1.4-1.9,3.7-2.3,4-2.9l1.1-2c0.4-0.7,0.7-1.1,1-1.6l39.6-51c0.9-1.2,2.7-1.5,4-0.6    c1.4,1,1.7,3,0.6,4.3l-40,50.4c-0.5,0.7-1.1,1.3-1.8,1.8l-1.7,1.3c-0.4,0.3-0.4,2.5-2,4c-1.3,1.2-3.4,1.7-4.7,0.3    C70,65.4,70,63.8,70.8,62.7z" fill="#BA793E"/>
	</g>
	<g>
		<path d="M19,72.2c-5.8-3.6-8.5-7.3-8-8.5c0.3-0.8,1.4-0.8,1.9-0.1c5.2,6.2,16,10.5,23.8,12c0.8,0.2,1.4,1.7-0.8,1.9    C34.1,77.6,26.7,77,19,72.2z" fill="#FFFFFF"/>
	</g>
	<g>
		<path d="M83.6,104c-0.7,0.3-1.4-0.5-1.7-1.6s-0.5-4.7-0.3-5.8c0.2-1.1,0.4-1.7,1.2-1.7s1.5,0.7,1.5,1.5    c0,0-0.1,4-0.1,5C84.3,102.4,84.3,103.8,83.6,104z" fill="#FFFFFF"/>
	</g>
	<g>
		<path d="M42.5,104c-0.7,0.3-1.4-0.5-1.7-1.6s-0.5-4.7-0.3-5.8s0.4-1.7,1.2-1.7s1.5,0.7,1.5,1.5c0,0-0.1,4,0,5    C43.2,102.4,43.1,103.8,42.5,104z" fill="#FFFFFF"/>
	</g>
</g>
</svg>