<svg xmlns="http://www.w3.org/2000/svg" width="128px" height="128px" viewBox="0 0 128 128" fill="none">
<path d="M67.9599 113.21L66.1699 112L114.82 40.5195L116.6 41.7295L67.9599 113.21Z" fill="#F7CF92"/>
<path d="M114.82 40.5198C114.83 40.5198 119.65 43.7698 119.65 43.7698L69.8401 117.5L72.7701 120.86L122.86 46.7298C125.12 43.1398 123.92 41.5398 122.51 40.6398C121.31 39.8898 120.36 40.0698 120.98 39.5298C121.49 39.0698 122.34 38.4298 122.05 37.8698C121.75 37.2898 121.22 36.5698 118.95 37.6698C116.45 38.8798 114.71 40.4498 114.82 40.5198Z" fill="#FF7043"/>
<path d="M76.29 115.649C75.1 114.869 72.4 113.589 71.36 115.209L71.3 115.309C70.93 115.859 70.79 116.109 70.26 115.769L68.12 114.409C67.74 114.159 67.58 113.759 67.95 113.209L68.18 112.859C68.63 112.199 68.17 111.129 67.18 110.479L64.67 114.379C63.99 115.399 64.28 116.419 65.17 117.009L68.75 119.299L68.15 120.189C67.65 120.949 67.95 122.039 68.84 122.629L69.13 122.819C70.02 123.409 71.15 123.269 71.66 122.509L72.71 120.949L76.29 115.649Z" fill="#455A64"/>
<path d="M90.3801 24.1196C89.8001 24.0696 89.2201 24.2396 88.7101 24.4796C87.3201 25.1396 86.3001 24.6196 85.8101 24.0296C84.8301 22.8296 85.2801 20.8296 86.8301 19.5596C88.3801 18.2896 90.4301 18.2396 91.4101 19.4396C91.8201 19.9396 91.9701 20.5996 91.9201 21.2396C91.8901 21.5496 91.7501 21.7496 91.9101 22.0496C92.0501 22.3096 92.5201 22.6396 93.1601 23.1796C93.4301 23.4096 92.5101 24.9596 92.1901 24.8196C90.8101 24.1896 90.6301 24.1396 90.3801 24.1196Z" fill="#455A64"/>
<path d="M99.6307 18.8514C101.178 17.5848 101.635 15.5846 100.652 14.3837C99.6686 13.1829 97.6175 13.2361 96.0704 14.5026C94.5234 15.7692 94.0663 17.7694 95.0494 18.9703C96.0326 20.1712 98.0837 20.1179 99.6307 18.8514Z" fill="#455A64"/>
<path d="M74.92 53.3198C74.62 53.0298 74.33 52.7798 74.03 52.5098L16.01 109.06C21.36 115.49 29.34 121.52 39.51 123.01C48.74 124.36 54.55 119.58 58.02 111.91C59.17 109.37 61.16 106.02 62.92 105.27C63.58 104.99 64.47 104.52 64.2 103.61C64.08 103.2 63.72 103.09 63.13 102.54C62.66 102.1 62.17 101.45 62.06 101.31C59.05 97.5298 56.98 95.1898 61.33 90.5498C65.57 86.0198 70.44 85.9098 72.63 87.9698C73.03 88.3398 73.58 88.4798 74.08 88.2698C74.15 88.2398 74.21 88.2098 74.28 88.1898C74.95 87.9098 75.25 87.1698 75.06 86.4698C74.66 85.0598 74.96 83.8198 75.53 82.5798C77.22 78.9198 92.14 69.9698 74.92 53.3198Z" fill="#A65F3E"/>
<path d="M100.22 27.5195L70.3701 58.0095" stroke="#FF7043" stroke-width="2.5166" stroke-miterlimit="10"/>
<path d="M71.3199 49.3695C52.4399 33.1995 44.6099 53.7995 38.5899 52.2695C37.1599 51.9095 36.2599 53.3995 36.9199 54.6995C37.2299 55.3095 39.3999 58.7595 35.5799 63.0495C32.8199 66.1395 29.9699 66.9495 27.3299 66.1295C26.5399 65.8795 25.7799 65.3395 25.0999 65.0995C24.4199 64.8595 23.5699 65.0795 23.3799 67.0795C23.2699 68.2595 22.6699 69.1095 20.8599 69.8395C17.3299 71.2495 14.1599 72.5695 11.2799 74.7795C5.08988 79.5395 1.97988 86.7195 5.90988 95.5195C9.83988 104.32 20.4099 117.17 35.9899 119.55C45.3299 120.98 51.1699 116.18 54.6299 108.46C55.7699 105.91 57.3499 102.87 59.1299 102.13C59.7999 101.85 60.4899 101.6 60.5099 100.76C60.5299 99.9495 59.2499 99.4895 58.1699 98.2495C55.5399 95.2295 53.5399 91.4995 57.8699 86.8795C62.1299 82.3395 67.0499 82.2495 69.2799 84.3495C69.6799 84.7295 70.2499 84.8695 70.7599 84.6595C70.8199 84.6295 70.8799 84.6095 70.9399 84.5795C71.6199 84.2995 71.9299 83.5495 71.7199 82.8395C71.3099 81.4095 71.5999 80.1695 72.1699 78.9095C73.8199 75.2495 91.2199 66.4095 71.3199 49.3695Z" fill="#FF7043"/>
<path d="M15.02 80.7794C17.22 82.9194 18.95 85.7394 19.33 88.6494C19.77 92.0994 18.29 95.1793 16.36 97.5993C15.64 98.5094 14.54 99.5194 14.37 101.459C14.05 105.069 16.5 105.869 17.07 106.729C17.64 107.589 17.93 108.809 17.29 109.399C16.82 109.829 16.01 109.729 15.38 109.339C14.75 108.949 14.32 108.289 13.83 107.719C7.71 100.669 3.59 94.9794 4.16 85.8194C4.27 84.0694 6.83 76.9794 8.74 76.4294C10.53 75.8994 13.66 79.4594 15.02 80.7794Z" fill="#455A64"/>
<path d="M32.48 79.0801L27.79 89.0901" stroke="#CFD8DC" stroke-width="0.5" stroke-miterlimit="10"/>
<path d="M34.85 80.5L29.22 90.31" stroke="#CFD8DC" stroke-width="0.5" stroke-miterlimit="10"/>
<path d="M37.54 82.0996L30.5 91.4196" stroke="#CFD8DC" stroke-width="0.5" stroke-miterlimit="10"/>
<path d="M39.3501 83.8799L32.1001 93.0199" stroke="#CFD8DC" stroke-width="0.5" stroke-miterlimit="10"/>
<path d="M103.95 30.3096C107.17 25.9796 110.03 25.3896 114.24 24.2296C119.12 22.8896 122.88 22.0496 123.78 16.9496C124.93 10.4596 118.26 4.97964 112.75 4.76964C110.23 4.66964 106.74 6.43964 106.67 9.75964C106.62 12.2496 108.19 13.4296 109.17 14.3396C106.37 16.6996 92.6001 16.9696 90.8801 26.2596C90.0401 30.7896 90.8101 30.3696 94.4401 32.6396C95.9201 33.5596 100.33 35.1696 103.95 30.3096Z" fill="#FF7043"/>
<path d="M110.82 15.5293C110.82 15.5293 113.4 17.5793 114.16 17.9493C114.16 17.9493 106.66 20.9793 102.99 22.5693C96.91 25.2093 95.74 30.5293 95.74 30.5293C93.87 32.6493 57.87 68.8493 57.87 68.8493L48.55 61.8793C48.55 61.8793 89.7401 27.0293 95.5401 22.4493C99.6601 19.2093 110.82 15.5293 110.82 15.5293Z" fill="#455A64"/>
<path d="M116.61 19.9399C114.13 19.4299 113.76 17.6899 113.76 17.6899C113.76 17.6899 116.4 19.8999 118.89 18.1299C119.85 17.4499 120 16.5899 119.94 16.2199C119.68 14.5299 117.93 15.1599 117.9 15.1799C117.44 15.4799 117.08 15.3199 116.78 14.9899C116.48 14.6699 116.69 14.0799 117.15 13.7799C118.5 12.9199 121.93 13.1599 121.66 16.6999C121.43 19.9199 118.31 20.2999 116.61 19.9399Z" fill="#37474F"/>
<path d="M50.2801 98.13C50.7201 97.33 50.2301 96.07 49.2201 95.87L49.2701 95.82C48.5201 95.73 47.7901 96.16 47.5501 96.83C43.8601 94.54 49.2301 89.03 50.8501 87.12C54.1601 83.2 55.0101 79.88 52.1001 78.07C52.0901 78.07 51.0301 77.36 50.3801 77.69C49.3501 78.2 49.1501 79.08 49.2501 79.44C49.5601 80.58 51.0701 81.55 52.0101 79.95C53.2801 84.09 45.0801 88.3 44.7101 93.52C44.0701 96.06 47.2701 99.8 49.6601 98.84L49.6401 98.8C49.9101 98.64 50.1401 98.41 50.2801 98.13Z" fill="#37474F"/>
<path d="M22.4899 72.1994C23.1599 71.7294 24.3299 72.0395 24.6199 72.9095L24.6599 72.8594C24.8199 73.5194 24.5199 74.2094 23.9599 74.4994C26.4199 77.5494 30.7199 72.1994 32.2299 70.5694C35.3399 67.2194 38.1999 66.1194 40.1499 68.5194C40.1599 68.5194 40.8999 69.3995 40.6899 70.0095C40.3499 70.9795 39.5999 71.2494 39.2599 71.1994C38.2099 71.0394 37.1799 69.7995 38.4999 68.7995C34.6699 68.0895 31.8499 75.8194 27.2499 76.6994C25.0599 77.5294 21.3699 75.0694 21.9499 72.8394L21.9899 72.8494C22.0699 72.5894 22.2499 72.3494 22.4899 72.1994Z" fill="#37474F"/>
<path d="M123.38 12.5699C122.52 11.2799 121.6 11.1299 120.32 10.9199C119.04 10.7199 117.69 10.8999 116.74 11.4799C113.39 13.4599 113.5 16.0699 113.76 17.6999C112.78 17.0399 111.49 13.6799 114.53 10.6799C116.04 9.18991 118.84 8.70991 120.73 9.42991C122.74 10.2199 123.38 12.5699 123.38 12.5699Z" fill="#F7CF92"/>
<path d="M34.2401 94.4998C34.2401 94.4998 31.95 96.9698 29.47 98.0698C27.81 98.8098 27.27 99.1998 25.8 100.04C24.33 100.88 18.3 108.25 18.3 108.25C17.97 108.74 17.63 109.25 17.02 109.44C16.41 109.63 14.8 107.78 14.8 107.78C14.8 107.78 20.18 97.3598 22.53 92.9998C24.52 89.2998 26.9 87.5098 26.9 87.5098L34.2401 94.4998Z" fill="#455A64"/>
<path d="M32.48 79.0796L93.21 25.3496" stroke="#CFD8DC" stroke-width="0.5" stroke-miterlimit="10" stroke-linecap="round"/>
<path d="M34.8501 80.5L94.1801 26.29" stroke="#CFD8DC" stroke-width="0.5" stroke-miterlimit="10" stroke-linecap="round"/>
<path d="M37.54 82.0997L95.13 27.2197" stroke="#CFD8DC" stroke-width="0.5" stroke-miterlimit="10" stroke-linecap="round"/>
<path d="M39.3501 83.8794L96.1901 28.1494" stroke="#CFD8DC" stroke-width="0.5" stroke-miterlimit="10" stroke-linecap="round"/>
<path d="M40.91 89.5093L29.52 79.1693C29.52 79.1693 32.51 76.5893 34.36 78.4493C34.36 78.4493 38.43 81.6593 40.4 83.7993C42.36 85.9393 40.91 89.5093 40.91 89.5093Z" fill="#A65F3E"/>
<path d="M110.7 34.3392C109.07 35.5092 107.04 35.7092 106.12 34.4592C105.04 33.0092 106.39 31.6592 105.56 30.2392C105.3 29.7892 104.91 29.4292 104.67 28.9692C104.43 28.5092 104.38 27.8792 104.77 27.5292C105.64 26.7692 106.5 27.6692 106.76 27.9192C108.63 29.7092 108.77 29.1692 110.12 29.0592C111.91 28.9192 112.79 29.9192 112.78 31.0292C112.77 32.1892 111.8 33.5392 110.7 34.3392Z" fill="#455A64"/>
<path d="M119.51 29.9395C117.96 31.2095 115.91 31.2595 114.93 30.0595C114.49 29.5195 114.36 28.9995 114.44 28.1295C114.59 26.4295 114.16 25.6895 113.74 25.3395C113.49 25.1295 113.29 24.8895 113.06 24.6895C112.64 24.3395 112.69 23.8795 112.84 23.5895C112.99 23.2995 113.54 23.0595 113.86 23.0895C114.44 23.1495 114.9 23.5795 115.37 23.9395C116.98 25.1995 117.81 24.7795 118.74 24.7695C119.67 24.7595 120.26 25.1395 120.53 25.4695C121.52 26.6695 121.06 28.6795 119.51 29.9395Z" fill="#455A64"/>
</svg>