<svg xmlns="http://www.w3.org/2000/svg" width="128px" height="128px" viewBox="0 0 128 128" fill="none">
<path d="M111.485 14.0795L56.6519 65.6826L61.4832 70.8164L116.317 19.2133L111.485 14.0795Z" fill="#FFCA28"/>
<path d="M23.27 101.89L92.88 36.3803C97.5 32.0303 105.03 32.5303 109.7 37.4903C109.7 37.4903 118.63 46.0303 109.79 54.3403L76.64 85.5403C72.34 89.5903 65.72 88.2703 61.44 84.6803C57.04 80.9903 54.3 72.6803 61.78 65.6503" stroke="#FFCA28" stroke-width="7.1779" stroke-miterlimit="10"/>
<path d="M58.7201 63.6201C35.7001 80.9501 12.4001 71.9701 10.8401 71.4601C6.76011 70.1201 5.82011 71.6001 5.30011 72.1401C1.40011 76.1001 6.50011 88.6501 18.3101 102.13C30.1201 115.61 44.0101 124.78 48.0601 120.97C50.8801 118.31 50.0801 115.8 49.8201 111.55C49.4701 105.92 44.9701 86.3101 63.6001 68.7901L58.7201 63.6201Z" fill="#FFCA28"/>
<path d="M43.5027 118.372C45.3992 116.69 39.0347 106.417 29.2874 95.4267C19.5401 84.4365 10.101 76.8907 8.20453 78.5727C6.30811 80.2547 12.6725 90.5275 22.4199 101.518C32.1672 112.508 41.6063 120.054 43.5027 118.372Z" fill="#DD7341"/>
<path d="M53.4702 69.2305C45.0702 75.0005 32.9902 78.0605 22.6002 77.0805C21.6502 76.9905 20.5702 76.9205 19.8602 77.5605C18.8402 78.4805 25.8002 85.4805 30.4002 84.6005C41.1902 82.5505 49.6402 75.4305 54.0202 71.6705C54.5002 71.2605 55.5902 70.1505 56.8002 68.8905C57.4702 68.1905 56.5702 67.1105 55.7602 67.6605C55.0402 68.1605 54.2702 68.6905 53.4702 69.2305Z" fill="#FFF9C4"/>
<path d="M94.1602 82.9703C93.5602 83.9503 92.5002 85.1903 90.6902 86.1403C89.8202 86.6003 88.7402 86.4203 88.0702 85.7103L57.4902 53.2103L63.2602 47.7803L93.8902 80.3303C94.5602 81.0503 94.6702 82.1303 94.1602 82.9703Z" fill="#FFCA28"/>
<path d="M58.0828 48.0819C59.4984 46.7496 60.0784 45.0665 59.3782 44.3225C58.678 43.5784 56.9628 44.0553 55.5472 45.3875C54.1315 46.7198 53.5515 48.403 54.2517 49.147C54.9519 49.891 56.6671 49.4141 58.0828 48.0819Z" fill="#9E740B"/>
<path d="M60.2002 48.39L58.8602 46.96L56.9402 48.77L58.2802 50.2C57.3102 51.41 56.8902 52.57 57.3502 53.06C57.9302 53.68 59.6902 52.96 61.2902 51.46C62.8802 49.96 63.7002 48.24 63.1202 47.63C62.6502 47.15 61.4602 47.5 60.2002 48.39Z" fill="#9E740B"/>
<path d="M103.5 74.4107C102.9 75.3907 101.84 76.6307 100.03 77.5807C99.1601 78.0407 98.0801 77.8607 97.4101 77.1507L66.8301 44.6507L72.6001 39.2207L103.23 71.7707C103.9 72.4907 104.01 73.5707 103.5 74.4107Z" fill="#FFCA28"/>
<path d="M67.4231 39.5213C68.8387 38.1891 69.4187 36.5059 68.7186 35.7619C68.0184 35.0179 66.3031 35.4947 64.8875 36.827C63.4718 38.1593 62.8918 39.8424 63.592 40.5864C64.2922 41.3304 66.0074 40.8536 67.4231 39.5213Z" fill="#9E740B"/>
<path d="M69.54 39.8304L68.2 38.4004L66.28 40.2104L67.62 41.6404C66.65 42.8504 66.23 44.0104 66.69 44.5004C67.27 45.1204 69.03 44.4004 70.63 42.9004C72.22 41.4004 73.04 39.6804 72.46 39.0704C71.99 38.5904 70.8 38.9404 69.54 39.8304Z" fill="#9E740B"/>
<path d="M112.42 65.6607C111.82 66.6407 110.76 67.8807 108.95 68.8307C108.08 69.2907 107 69.1107 106.33 68.4007L75.7402 35.9007L81.5102 30.4707L112.14 63.0207C112.82 63.7407 112.93 64.8207 112.42 65.6607Z" fill="#FFCA28"/>
<path d="M79.534 34.1677C81.1266 32.669 81.9451 30.9519 81.3623 30.3325C80.7794 29.7132 79.0158 30.4261 77.4232 31.9249C75.8306 33.4237 75.0121 35.1408 75.5949 35.7601C76.1778 36.3794 77.9413 35.6665 79.534 34.1677Z" fill="#9E740B"/>
<path d="M76.343 30.7713C77.7587 29.4391 78.3387 27.7559 77.6385 27.0119C76.9383 26.2679 75.2231 26.7447 73.8074 28.077C72.3918 29.4093 71.8118 31.0924 72.5119 31.8364C73.2121 32.5804 74.9274 32.1036 76.343 30.7713Z" fill="#9E740B"/>
<path d="M77.1124 29.6596L75.1899 31.4688L77.52 33.9446L79.4424 32.1354L77.1124 29.6596Z" fill="#9E740B"/>
<path d="M120.31 9.7003C116.23 5.7303 113.26 5.5103 111.73 7.0803C111.06 7.7703 110.93 8.8603 111.24 10.1203C111.46 11.0003 111.44 11.9703 110.81 12.6203L109.19 14.2903C107.79 15.7303 108.4 17.0803 108.4 17.0803C108.4 17.0803 109.77 17.6103 111.33 18.9303C112.69 20.4503 113.36 21.9603 113.36 21.9603C113.36 21.9603 114.73 22.5303 116.13 21.0903L117.75 19.4203C118.38 18.7703 119.24 18.8503 120.12 19.0403C121.39 19.3203 122.48 19.1503 123.15 18.4603C124.68 16.9003 124.39 13.6703 120.31 9.7003Z" fill="#616161"/>
</svg>