<svg xmlns="http://www.w3.org/2000/svg" xmlns:xlink="http://www.w3.org/1999/xlink" version="1.1" id="Layer_1" x="0px" y="0px" viewBox="0 0 128 128" enable-background="new 0 0 128 128" xml:space="preserve" width="128px" height="128px">
<path fill="#EDC391" d="M75.9701,24.3401h-3.23h-17.48h-3.23c-2.58,0-4.69,2.25-4.69,5s2.11,5,4.69,5h3.23h17.49h3.23  c2.58,0,4.69-2.25,4.69-5S78.5601,24.3401,75.9701,24.3401z"/>
<path fill="#FADEBE" d="M94.4663,70.3867c0.4284,1.971,0.7771,3.4878,0.9923,3.8673c0.1207,0.2024,0.2143,0.3789,0.2984,0.5374  c0.0356,0.0671,0.0695,0.131,0.103,0.1923c0.4866,0.9093,0.6959,1.2931,2.5627,3.7392c0.9804,1.3022,0.8778,2.7825,0.7492,4.4889  c-0.0043,0.0638-0.0088,0.1281-0.0132,0.1927c-0.0342,0.4936-0.07,1.0102-0.0764,1.5384c-0.0159,1.2655-1.548,2.732-2.6915,2.8988  c-0.2079,0.0304-0.3985,0.0177-0.5487-0.0412c-0.6829-0.3147-0.898-2.5167-0.9687-3.2442  c-0.0967-0.9863-0.9341-2.1173-1.6517-2.5887c-0.3768-0.238-0.7335-0.3376-1.1147-0.282l-0.205,0.0501  c-0.8302,0.2929-0.7321,1.1275-0.6267,1.9307l0.0017,0.0137c0.0674,0.5427,0.1444,1.1619,0.0126,1.7022  c-0.0404,0.208-0.2556,0.3506-0.579,0.3977c-0.4967,0.0725-1.0916-0.1237-1.2157-0.7321c-0.0115-0.0792-0.0491-0.1748-0.1054-0.3181  c-0.1429-0.3328-0.4201-1.0201-0.5514-2.4865c-0.1386-1.7584-0.1977-3.7811,0.5056-5.5107l0.0881-0.2049l-1.7511-4.2749  L94.4663,70.3867z"/>
<path fill="#FADEBE" d="M35.2057,69.3248c-0.6019,1.9251-1.0839,3.4049-1.332,3.7638c-0.1382,0.191-0.2471,0.3584-0.3449,0.5088  c-0.0415,0.0637-0.0809,0.1244-0.1197,0.1824c-0.5654,0.8625-0.808,1.2262-2.8848,3.4968c-1.0922,1.2099-1.1215,2.6935-1.145,4.4046  c-0.0013,0.0639-0.0026,0.1283-0.0039,0.1931c-0.0098,0.4947-0.0201,1.0124-0.0606,1.539c-0.0966,1.262,1.2991,2.8588,2.4233,3.1266  c0.2044,0.0486,0.3954,0.053,0.5502,0.0076c0.7082-0.2528,1.118-2.427,1.2531-3.1452c0.1839-0.9739,1.1185-2.026,1.8751-2.4318  c0.3965-0.2037,0.7606-0.2711,1.1353-0.1819l0.1998,0.0681c0.8009,0.3655,0.629,1.1881,0.4527,1.9788l-0.0029,0.0135  c-0.1154,0.5345-0.247,1.1444-0.1638,1.6943c0.0218,0.2108,0.2234,0.3719,0.5414,0.4476c0.4883,0.1163,1.0982-0.0263,1.276-0.6213  c0.0185-0.0778,0.0644-0.1696,0.1332-0.3074c0.1719-0.3188,0.5091-0.9788,0.7702-2.4277c0.2941-1.7392,0.5327-3.7486-0.0141-5.5338  l-0.0696-0.2119l2.1239-4.1025L35.2057,69.3248z"/>
<path fill="#7C7C7C" d="M67,120c0,0,0-14.811-1.2745-27.5444c-0.1125-1.124-1.5057-1.1481-1.655-0.0285  C62.3708,105.167,62,120,62,120H48c0,0,0.3691-29.6309,0-30c-3.7883-3.7884-2.8771-15.5-2.8771-15.5h38.7078  C83.8307,74.5,85,87,81.5,90v30H67z"/>
<path fill="#424242" d="M74.02,123h4.45c0.82-0.02,1.41-0.96,1.17-1.78c-0.74-2.49-2.99-4.32-5.62-4.32c-2.68,0-4.96,1.9-5.66,4.46  c-0.22,0.82,0.39,1.63,1.21,1.63h4.45V123z"/>
<path fill="#424242" d="M54.9801,123H50.53c-0.82-0.02-1.4099-0.96-1.1699-1.78c0.74-2.49,2.9899-4.32,5.62-4.32  c2.68,0,4.96,1.9,5.6599,4.46c0.2201,0.82-0.3899,1.63-1.2099,1.63h-4.45V123z"/>
<linearGradient id="SVGID_1_" gradientUnits="userSpaceOnUse" x1="64.75" y1="88.4245" x2="64.75" y2="52.6314" gradientTransform="matrix(1 0 0 -1 0 130)">
	<stop offset="0.3661" style="stop-color:#F78C1F"/>
	<stop offset="0.6716" style="stop-color:#F47F12"/>
	<stop offset="0.9886" style="stop-color:#EF6C00"/>
</linearGradient>
<path fill="url(#SVGID_1_)" d="M76.2716,43.1054c-7.4466-1.6914-16.0493-1.7052-23.4945,0C43.572,45.2014,38,55,32,74l9.5,3.1323  l5-13.6323c0,0-1.5,6.2662-1.5,12.6323c15.5,2.8677,26,3.3677,39,0C84,69.6335,82,63.5,82,63.5l6,14l9.5-3  C94,62,86.5,45.4286,76.2716,43.1054z"/>
<path fill="#EDC391" d="M64.007,40H57v3.8485C57,45.5913,59.8448,47,63.3624,47h1.2752C68.1552,47,71,45.5913,71,43.8485V40H64.007z  "/>
<path fill="#F9DDBD" d="M63.9901,8.39c7.63,0,14.6899,5.67,14.6899,17.7c0,9.66-5.98,15.38-11.19,17.22  c-1.24,0.44-2.4399,0.66-3.4999,0.66S61.74,43.75,60.51,43.32C55.3,41.48,49.3,35.77,49.3,26.09  C49.3,14.06,56.3701,8.39,63.9901,8.39z"/>
<path fill="#444444" d="M67.69,35.99c-1.4,0.83-5.97,0.83-7.37,0c-0.8-0.48-1.62,0.25-1.29,0.98c0.33,0.72,2.82,2.38,4.98,2.38  c2.16,0,4.62-1.66,4.95-2.38C69.3,36.24,68.49,35.51,67.69,35.99z"/>
<path fill="#DBA689" d="M65.6901,32.4c-0.05-0.02-0.09-0.03-0.14-0.04h-3.1c-0.05,0.01-0.1,0.02-0.14,0.04  c-0.28,0.11-0.44,0.4-0.3,0.72c0.14,0.32,0.75,1.18,1.99,1.18s1.86-0.87,1.99-1.18C66.1301,32.81,65.9701,32.52,65.6901,32.4z"/>
<path fill="#312D2D" d="M56.8,30.5701c1.1929,0,2.16-1.0029,2.16-2.24c0-1.2371-0.9671-2.24-2.16-2.24  c-1.1929,0-2.16,1.0029-2.16,2.24C54.64,29.5672,55.6071,30.5701,56.8,30.5701z"/>
<path fill="#312D2D" d="M71.2,30.5701c1.193,0,2.16-1.0029,2.16-2.24c0-1.2371-0.967-2.24-2.16-2.24  c-1.1929,0-2.16,1.0029-2.16,2.24C69.04,29.5672,70.0071,30.5701,71.2,30.5701z"/>
<path fill="#454140" d="M67.9999,24.32c0.41-0.54,1.36-1.34,3.21-1.34s2.8,0.79,3.21,1.34c0.18,0.24,0.14,0.52,0.01,0.69  c-0.12,0.16-0.46,0.3-0.84,0.17c-0.38-0.13-1.13-0.51-2.37-0.52c-1.25,0.01-1.99,0.39-2.37,0.52c-0.38,0.13-0.73-0.01-0.84-0.17  C67.8599,24.83,67.8199,24.56,67.9999,24.32z"/>
<path fill="#454140" d="M53.5899,24.32c0.41-0.54,1.36-1.34,3.21-1.34s2.8,0.79,3.21,1.34c0.18,0.24,0.14,0.52,0.01,0.69  c-0.12,0.16-0.46,0.3-0.84,0.17c-0.38-0.13-1.13-0.51-2.37-0.52c-1.25,0.01-1.99,0.39-2.37,0.52c-0.38,0.13-0.73-0.01-0.84-0.17  C53.4499,24.83,53.4099,24.56,53.5899,24.32z"/>
<linearGradient id="SVGID_00000060733891370905306120000003056354378352415152_" gradientUnits="userSpaceOnUse" x1="63.927" y1="121.3532" x2="63.9221" y2="103.4544" gradientTransform="matrix(1 0 0 -1 0 130)">
	<stop offset="0.6667" style="stop-color:#312D2D"/>
	<stop offset="1" style="stop-color:#F9DDBD;stop-opacity:0.34"/>
</linearGradient>
<path fill="url(#SVGID_00000060733891370905306120000003056354378352415152_)" d="M49.3042,27.3986c0.1391,0,2.5233,0,2.5233,0  s0.9798-10.0162,3.5289-12.5596c2.4971-0.4421,15.4187-0.8596,16.4173,0c4.7743,5.6163,4.7743,12.7209,4.7743,12.7209  s1.4982,0,1.9975,0c1.1785-10.2774-4.9941-19.773-14.4829-19.9948C52.561,7.2962,48.2723,17.9142,49.3042,27.3986z"/>
<g>
	<path fill="#312E2E" d="M69.9364,16.6957c6.3853,0.2101,8.6709,6.3286,8.6709,6.3286c1.8658-6.6736,1.1868-11.9919-5.0811-15.2502   c-3.0842-1.2184-6.4119-0.7598-9.497-0.3347c-3.1387,0.4325-6.0263,0.8304-8.1505-0.6076   c-1.1088-0.7489-0.9805-2.6054-0.9805-2.6054s-3.659,1.2458-2.641,5.3356c-1.2259-0.014-2.8768,0.4537-3.8281,2.225   c-0.6662,1.2448-1.0697,2.6348-1.1558,3.9803c-1.1557,0.4971-2.0002,1.6643-2.0751,3.0657   c-0.1031,1.9305,1.2934,3.5745,3.1192,3.672c4.6514,0.2484,8.8977-1.5402,13.1438-3.3287c1.2298-0.518,2.4597-1.0361,3.6994-1.5046   c-0.4532,0.8488-1.126,1.8456-1.6385,1.9615c-0.8421,0.1905,3.6537,0.4693,4.9468-1.1571c0.2912-0.3663,0.6006-0.7369,0.9-1.0956   C69.565,17.1456,69.7568,16.9158,69.9364,16.6957z"/>
	
		<radialGradient id="SVGID_00000074415575856567431930000014073500495481537196_" cx="-226.3917" cy="436.8451" r="1" gradientTransform="matrix(17.657 0.9428 0.7013 -13.133 3753.4348 5968.5098)" gradientUnits="userSpaceOnUse">
		<stop offset="0.7945" style="stop-color:#454140;stop-opacity:0"/>
		<stop offset="1" style="stop-color:#454140"/>
	</radialGradient>
	<path fill="url(#SVGID_00000074415575856567431930000014073500495481537196_)" d="M69.9364,16.6957   c6.3853,0.2101,8.6709,6.3286,8.6709,6.3286c1.8658-6.6736,1.1868-11.9919-5.0811-15.2502   c-3.0842-1.2184-6.4119-0.7598-9.497-0.3347c-3.1387,0.4325-6.0263,0.8304-8.1505-0.6076   c-1.1088-0.7489-0.9805-2.6054-0.9805-2.6054s-3.659,1.2458-2.641,5.3356c-1.2259-0.014-2.8768,0.4537-3.8281,2.225   c-0.6662,1.2448-1.0697,2.6348-1.1558,3.9803c-1.1557,0.4971-2.0002,1.6643-2.0751,3.0657   c-0.1031,1.9305,1.2934,3.5745,3.1192,3.672c4.6514,0.2484,8.8977-1.5402,13.1438-3.3287c1.2298-0.518,2.4597-1.0361,3.6994-1.5046   c-0.4532,0.8488-1.126,1.8456-1.6385,1.9615c-0.8421,0.1905,3.6537,0.4693,4.9468-1.1571c0.2912-0.3663,0.6006-0.7369,0.9-1.0956   C69.565,17.1456,69.7568,16.9158,69.9364,16.6957z"/>
</g>
</svg>